<?xml version="1.0" standalone="no"?>
<!DOCTYPE svg PUBLIC "-//W3C//DTD SVG 20010904//EN"
 "http://www.w3.org/TR/2001/REC-SVG-20010904/DTD/svg10.dtd">
<svg version="1.0" xmlns="http://www.w3.org/2000/svg"
 width="25.000000pt" height="25.000000pt" viewBox="0 0 512.000000 512.000000"
 preserveAspectRatio="xMidYMid meet">

<g transform="translate(0.000000,512.000000) scale(0.100000,-0.100000)"
fill="#000000" stroke="none">
<path d="M4285 4513 c-31 -5 -3702 -1471 -3764 -1503 -137 -71 -191 -246 -120
-388 41 -82 81 -111 251 -184 203 -86 260 -84 326 12 31 47 30 123 -2 171 -25
37 -42 47 -156 94 -36 15 -68 30 -73 34 -4 4 806 332 1800 730 1635 654 1808
721 1822 707 14 -14 -16 -161 -312 -1548 -181 -843 -333 -1545 -338 -1559 -12
-30 -51 -52 -76 -42 -13 5 -1249 961 -1296 1003 -4 4 280 297 632 652 571 576
641 650 651 689 20 74 -21 160 -90 189 -78 32 -58 43 -1050 -544 -509 -302
-936 -556 -950 -565 -101 -71 -92 -225 16 -276 76 -36 96 -28 489 205 198 116
376 221 395 233 l35 20 -40 -44 c-22 -24 -113 -118 -201 -209 -94 -96 -171
-184 -185 -210 -16 -32 -24 -68 -27 -126 -4 -72 -1 -88 23 -141 14 -33 45 -78
68 -100 72 -69 1339 -1037 1392 -1063 44 -22 63 -25 155 -25 95 0 111 3 167
29 74 34 154 113 185 182 11 26 171 754 355 1618 366 1718 352 1639 304 1749
-30 69 -110 149 -179 180 -57 26 -151 39 -207 30z"/>
</g>
</svg>
