<?xml version="1.0" encoding="UTF-8"?>
<!DOCTYPE svg PUBLIC "-//W3C//DTD SVG 1.1//EN" "http://www.w3.org/Graphics/SVG/1.1/DTD/svg11.dtd">
<svg xmlns="http://www.w3.org/2000/svg" version="1.1" width="512px" height="512px" style="shape-rendering:geometricPrecision; text-rendering:geometricPrecision; image-rendering:optimizeQuality; fill-rule:evenodd; clip-rule:evenodd" xmlns:xlink="http://www.w3.org/1999/xlink">
<g><path style="opacity:1" fill="#fccf01" d="M 53.5,-0.5 C 186.833,-0.5 320.167,-0.5 453.5,-0.5C 459.268,1.52697 465.268,3.19364 471.5,4.5C 472.492,4.32842 473.158,4.66175 473.5,5.5C 474.514,6.67373 475.847,7.3404 477.5,7.5C 478.492,7.32842 479.158,7.66175 479.5,8.5C 479.973,9.90632 480.973,10.573 482.5,10.5C 482.973,11.9063 483.973,12.573 485.5,12.5C 489.5,17.1667 493.833,21.5 498.5,25.5C 498.427,27.0269 499.094,28.0269 500.5,28.5C 500.427,30.0269 501.094,31.0269 502.5,31.5C 503.338,31.8417 503.672,32.5084 503.5,33.5C 503.66,35.153 504.326,36.4863 505.5,37.5C 506.79,43.033 508.457,48.3664 510.5,53.5C 510.667,187.5 510.5,321.5 510,455.5C 509.12,461.687 507.62,467.687 505.5,473.5C 504.326,474.514 503.66,475.847 503.5,477.5C 503.672,478.492 503.338,479.158 502.5,479.5C 501.094,479.973 500.427,480.973 500.5,482.5C 499.094,482.973 498.427,483.973 498.5,485.5C 496.413,486.585 495.08,488.251 494.5,490.5C 493.5,492.167 492.167,493.5 490.5,494.5C 488.251,495.08 486.585,496.413 485.5,498.5C 483.973,498.427 482.973,499.094 482.5,500.5C 480.973,500.427 479.973,501.094 479.5,502.5C 479.158,503.338 478.492,503.672 477.5,503.5C 475.847,503.66 474.514,504.326 473.5,505.5C 473.158,506.338 472.492,506.672 471.5,506.5C 465.29,507.883 459.29,509.549 453.5,511.5C 320.167,511.5 186.833,511.5 53.5,511.5C 53.5,511.167 53.5,510.833 53.5,510.5C 48.3664,508.457 43.033,506.79 37.5,505.5C 36.4863,504.326 35.153,503.66 33.5,503.5C 32.5084,503.672 31.8417,503.338 31.5,502.5C 31.0269,501.094 30.0269,500.427 28.5,500.5C 28.0269,499.094 27.0269,498.427 25.5,498.5C 21.5,493.833 17.1667,489.5 12.5,485.5C 12.573,483.973 11.9063,482.973 10.5,482.5C 10.573,480.973 9.90632,479.973 8.5,479.5C 7.66175,479.158 7.32842,478.492 7.5,477.5C 7.3404,475.847 6.67373,474.514 5.5,473.5C 3.4776,466.722 1.4776,460.055 -0.5,453.5C -0.5,320.167 -0.5,186.833 -0.5,53.5C -0.166667,53.5 0.166667,53.5 0.5,53.5C 2.54301,48.3664 4.20968,43.033 5.5,37.5C 6.67373,36.4863 7.3404,35.153 7.5,33.5C 7.32842,32.5084 7.66175,31.8417 8.5,31.5C 9.90632,31.0269 10.573,30.0269 10.5,28.5C 16.1667,22.1667 22.1667,16.1667 28.5,10.5C 30.0269,10.573 31.0269,9.90632 31.5,8.5C 31.8417,7.66175 32.5084,7.32842 33.5,7.5C 35.153,7.3404 36.4863,6.67373 37.5,5.5C 43.033,4.20968 48.3664,2.54301 53.5,0.5C 53.5,0.166667 53.5,-0.166667 53.5,-0.5 Z"/></g>
<g><path style="opacity:0.808" fill="#342b0a" d="M 453.5,-0.5 C 454.833,-0.5 456.167,-0.5 457.5,-0.5C 462.372,0.552689 467.039,2.21936 471.5,4.5C 465.268,3.19364 459.268,1.52697 453.5,-0.5 Z"/></g>
<g><path style="opacity:1" fill="#5b4a0d" d="M 53.5,0.5 C 48.3664,2.54301 43.033,4.20968 37.5,5.5C 42.2574,2.30517 47.5907,0.638501 53.5,0.5 Z"/></g>
<g><path style="opacity:0.159" fill="#1c1602" d="M 473.5,5.5 C 475.38,5.22911 476.713,5.89578 477.5,7.5C 475.847,7.3404 474.514,6.67373 473.5,5.5 Z"/></g>
<g><path style="opacity:0.796" fill="#261e03" d="M 37.5,5.5 C 36.4863,6.67373 35.153,7.3404 33.5,7.5C 34.287,5.89578 35.6203,5.22911 37.5,5.5 Z"/></g>
<g><path style="opacity:0.059" fill="#1c1603" d="M 479.5,8.5 C 481.027,8.42702 482.027,9.09368 482.5,10.5C 480.973,10.573 479.973,9.90632 479.5,8.5 Z"/></g>
<g><path style="opacity:0.894" fill="#2e2606" d="M 31.5,8.5 C 31.0269,9.90632 30.0269,10.573 28.5,10.5C 28.9731,9.09368 29.9731,8.42702 31.5,8.5 Z"/></g>
<g><path style="opacity:0.059" fill="#1a1401" d="M 482.5,10.5 C 484.027,10.427 485.027,11.0937 485.5,12.5C 483.973,12.573 482.973,11.9063 482.5,10.5 Z"/></g>
<g><path style="opacity:0.231" fill="#292107" d="M 485.5,12.5 C 490.833,15.8333 495.167,20.1667 498.5,25.5C 493.833,21.5 489.5,17.1667 485.5,12.5 Z"/></g>
<g><path style="opacity:0.961" fill="#362c08" d="M 28.5,10.5 C 22.1667,16.1667 16.1667,22.1667 10.5,28.5C 14.8333,20.8333 20.8333,14.8333 28.5,10.5 Z"/></g>
<g><path style="opacity:0.643" fill="#241e02" d="M 498.5,25.5 C 499.906,25.9731 500.573,26.9731 500.5,28.5C 499.094,28.0269 498.427,27.0269 498.5,25.5 Z"/></g>
<g><path style="opacity:0.584" fill="#201a03" d="M 10.5,28.5 C 10.573,30.0269 9.90632,31.0269 8.5,31.5C 8.42702,29.9731 9.09368,28.9731 10.5,28.5 Z"/></g>
<g><path style="opacity:0.584" fill="#221b03" d="M 500.5,28.5 C 501.906,28.9731 502.573,29.9731 502.5,31.5C 501.094,31.0269 500.427,30.0269 500.5,28.5 Z"/></g>
<g><path style="opacity:1" fill="#010100" d="M 99.5,67.5 C 96.1789,68.0981 95.1789,69.7647 96.5,72.5C 103.262,80.7652 110.595,88.5985 118.5,96C 132.467,108.299 146.134,120.966 159.5,134C 166.381,133.957 173.047,132.624 179.5,130C 202.039,126.473 222.706,130.973 241.5,143.5C 240.557,157.818 239.89,172.151 239.5,186.5C 238.833,193.678 238.167,201.011 237.5,208.5C 235.146,210.246 234.146,212.579 234.5,215.5C 229.822,221.516 226.155,228.183 223.5,235.5C 222.698,236.952 222.198,238.618 222,240.5C 221.5,251.161 221.333,261.828 221.5,272.5C 219.53,279.877 217.197,287.21 214.5,294.5C 214.672,295.492 214.338,296.158 213.5,296.5C 210.913,305.74 207.58,314.74 203.5,323.5C 202.167,323.5 200.833,323.5 199.5,323.5C 199.167,322.5 198.5,321.833 197.5,321.5C 197.631,320.761 197.464,320.094 197,319.5C 194.713,317.946 192.546,316.279 190.5,314.5C 175.799,299.132 160.466,284.465 144.5,270.5C 139.167,264.5 133.5,258.833 127.5,253.5C 123.424,245.789 119.424,238.122 115.5,230.5C 115.219,226.812 114.719,223.145 114,219.5C 113.617,218.944 113.117,218.611 112.5,218.5C 111.373,204.162 113.706,190.495 119.5,177.5C 111.166,168.167 102.166,159.5 92.5,151.5C 89.4667,145.958 85.4667,141.124 80.5,137C 74.5315,132.033 68.8648,126.699 63.5,121C 60.9528,118.946 58.2861,117.113 55.5,115.5C 52.022,113.67 49.6886,114.67 48.5,118.5C 47.0536,119.613 45.3869,119.78 43.5,119C 33.2774,108.442 22.7774,98.2757 12,88.5C 11.3333,87.8333 11.3333,87.1667 12,86.5C 30.3768,67.6222 49.2101,49.2889 68.5,31.5C 79.2347,42.0712 90.0681,52.4045 101,62.5C 101.599,64.5348 101.099,66.2015 99.5,67.5 Z"/></g>
<g><path style="opacity:0.804" fill="#261f03" d="M 7.5,33.5 C 7.3404,35.153 6.67373,36.4863 5.5,37.5C 5.22911,35.6203 5.89578,34.287 7.5,33.5 Z"/></g>
<g><path style="opacity:0.159" fill="#1f1802" d="M 503.5,33.5 C 505.104,34.287 505.771,35.6203 505.5,37.5C 504.326,36.4863 503.66,35.153 503.5,33.5 Z"/></g>
<g><path style="opacity:1" fill="#030302" d="M 460.5,349.5 C 459.833,349.5 459.5,349.833 459.5,350.5C 456.252,355.326 453.252,360.326 450.5,365.5C 422.745,402.845 387.079,429.179 343.5,444.5C 338.095,446.192 332.762,447.859 327.5,449.5C 325.833,450.167 324.167,450.833 322.5,451.5C 317.804,451.671 313.137,452.171 308.5,453C 307.944,453.383 307.611,453.883 307.5,454.5C 307.167,454.5 306.833,454.5 306.5,454.5C 300.322,454.844 294.322,455.511 288.5,456.5C 202.988,459.612 136.488,425.612 89,354.5C 53.1504,292.17 50.1504,228.17 80,162.5C 81.6971,160.301 83.1971,157.968 84.5,155.5C 86.0948,154.566 87.7615,154.566 89.5,155.5C 94.4095,161.24 99.9095,166.573 106,171.5C 106.49,172.793 106.657,174.127 106.5,175.5C 106.167,175.5 105.833,175.5 105.5,175.5C 100.274,185.509 96.6069,196.176 94.5,207.5C 91.6952,214.093 90.3618,221.093 90.5,228.5C 87.2436,251.858 88.9103,274.858 95.5,297.5C 103.987,325.802 118.654,350.469 139.5,371.5C 140.833,373.5 142.5,375.167 144.5,376.5C 147.46,379.645 150.793,382.312 154.5,384.5C 156.466,387.157 159.133,388.823 162.5,389.5C 165.106,390.652 167.773,390.818 170.5,390C 173.965,387.537 177.131,384.704 180,381.5C 183.947,375.057 188.447,369.057 193.5,363.5C 197.356,358.965 199.689,353.632 200.5,347.5C 201.626,344.535 202.626,341.535 203.5,338.5C 206.08,329.995 209.247,321.662 213,313.5C 214.655,306.697 216.488,300.03 218.5,293.5C 219.217,291.047 220.384,288.713 222,286.5C 222.187,280.82 223.52,275.487 226,270.5C 227.181,261.218 227.348,251.884 226.5,242.5C 227.11,241.609 227.443,240.609 227.5,239.5C 230.22,231.393 234.053,223.726 239,216.5C 240.9,212.368 241.733,208.034 241.5,203.5C 243.896,190.662 244.896,177.662 244.5,164.5C 245.275,157.647 245.942,150.647 246.5,143.5C 247.622,132.546 247.788,121.546 247,110.5C 243.667,101.167 240.333,91.8333 237,82.5C 235.512,80.84 233.679,79.84 231.5,79.5C 228.707,78.254 226.04,78.5873 223.5,80.5C 219.809,81.3934 216.142,82.3934 212.5,83.5C 208.884,83.8993 205.55,84.8993 202.5,86.5C 200.302,86.1201 198.635,86.7868 197.5,88.5C 186.125,92.9114 175.792,98.9114 166.5,106.5C 164.973,106.427 163.973,107.094 163.5,108.5C 161.251,109.08 159.585,110.413 158.5,112.5C 156.5,112.833 154.5,113.167 152.5,113.5C 146.188,107.854 140.188,101.854 134.5,95.5C 192.358,48.7092 257.691,34.5425 330.5,53C 395.527,71.3705 442.027,111.204 470,172.5C 495.254,233.248 492.088,292.248 460.5,349.5 Z"/></g>
<g><path style="opacity:0.996" fill="#4e400c" d="M 5.5,37.5 C 4.20968,43.033 2.54301,48.3664 0.5,53.5C 0.638501,47.5907 2.30517,42.2574 5.5,37.5 Z"/></g>
<g><path style="opacity:0.996" fill="#4f400c" d="M 505.5,37.5 C 508.695,42.2574 510.361,47.5907 510.5,53.5C 508.457,48.3664 506.79,43.033 505.5,37.5 Z"/></g>
<g><path style="opacity:1" fill="#9d966c" d="M 99.5,67.5 C 98.075,68.922 97.075,70.5887 96.5,72.5C 95.1789,69.7647 96.1789,68.0981 99.5,67.5 Z"/></g>
<g><path style="opacity:1" fill="#b9ad64" d="M 363.5,97.5 C 361.685,96.3702 359.685,95.7036 357.5,95.5C 351.942,93.0923 346.275,91.0923 340.5,89.5C 339.657,87.8267 338.324,86.66 336.5,86C 326.777,83.457 317.111,80.7904 307.5,78C 303.129,77.1725 298.795,77.3391 294.5,78.5C 291.089,85.8502 288.422,93.5169 286.5,101.5C 285.484,111.337 285.484,121.337 286.5,131.5C 283.228,115.391 284.061,99.3913 289,83.5C 290.123,80.7513 291.623,78.2513 293.5,76C 298.167,75.3333 302.833,75.3333 307.5,76C 315.002,78.3709 322.668,80.3709 330.5,82C 339.372,85.8107 348.372,89.4774 357.5,93C 360.014,93.8809 362.014,95.3809 363.5,97.5 Z"/></g>
<g><path style="opacity:1" fill="#b1ab7f" d="M 231.5,79.5 C 228.833,79.8333 226.167,80.1667 223.5,80.5C 226.04,78.5873 228.707,78.254 231.5,79.5 Z"/></g>
<g><path style="opacity:1" fill="#fed101" d="M 383.5,112.5 C 386.838,114.515 389.838,117.015 392.5,120C 393.745,120.791 395.078,121.291 396.5,121.5C 401.831,129.157 407.831,136.157 414.5,142.5C 416.121,143.695 417.787,144.695 419.5,145.5C 419.343,146.873 419.51,148.207 420,149.5C 423.473,152.026 425.973,155.36 427.5,159.5C 428.954,161.437 430.621,163.103 432.5,164.5C 433.674,165.514 434.34,166.847 434.5,168.5C 435.854,172.888 437.521,177.221 439.5,181.5C 441.588,187.993 443.921,194.326 446.5,200.5C 447.5,201.833 448.5,203.167 449.5,204.5C 449.5,207.167 449.5,209.833 449.5,212.5C 450.574,223.473 450.74,234.473 450,245.5C 448.184,248.342 445.684,250.175 442.5,251C 430.865,252.435 419.199,252.768 407.5,252C 388.524,246.342 369.524,240.676 350.5,235C 345.245,233.624 339.912,232.791 334.5,232.5C 333.624,232.631 332.957,232.298 332.5,231.5C 333.127,230.583 333.461,229.583 333.5,228.5C 334.622,226.712 334.789,224.712 334,222.5C 325.079,215.749 316.913,208.083 309.5,199.5C 307.09,197.232 304.423,196.899 301.5,198.5C 300.3,188.513 299.134,178.513 298,168.5C 296.161,157.152 293.994,145.818 291.5,134.5C 289.775,125.34 289.275,116.007 290,106.5C 292.118,99.603 294.118,92.603 296,85.5C 296.833,84.6667 297.667,83.8333 298.5,83C 302.167,82.3333 305.833,82.3333 309.5,83C 336.004,88.2605 360.338,98.4272 382.5,113.5C 383.107,113.376 383.44,113.043 383.5,112.5 Z"/></g>
<g><path style="opacity:1" fill="#d8b20d" d="M 340.5,89.5 C 346.275,91.0923 351.942,93.0923 357.5,95.5C 364.809,100.388 372.476,104.722 380.5,108.5C 381.211,110.03 382.211,111.363 383.5,112.5C 383.44,113.043 383.107,113.376 382.5,113.5C 360.338,98.4272 336.004,88.2605 309.5,83C 305.833,82.3333 302.167,82.3333 298.5,83C 297.667,83.8333 296.833,84.6667 296,85.5C 294.118,92.603 292.118,99.603 290,106.5C 289.275,116.007 289.775,125.34 291.5,134.5C 288.758,126.507 287.091,118.173 286.5,109.5C 288.799,103.082 290.633,96.4155 292,89.5C 293.654,86.8792 295.487,84.3792 297.5,82C 302.833,81.3333 308.167,81.3333 313.5,82C 322.86,83.4478 331.86,85.9478 340.5,89.5 Z"/></g>
<g><path style="opacity:1" fill="#6f6b52" d="M 212.5,83.5 C 209.548,85.4098 206.214,86.4098 202.5,86.5C 205.55,84.8993 208.884,83.8993 212.5,83.5 Z"/></g>
<g><path style="opacity:1" fill="#736e50" d="M 202.5,86.5 C 201.448,88.256 199.781,88.9227 197.5,88.5C 198.635,86.7868 200.302,86.1201 202.5,86.5 Z"/></g>
<g><path style="opacity:1" fill="#999268" d="M 197.5,88.5 C 193.629,92.2722 188.962,94.7722 183.5,96C 178.112,100.023 172.446,103.523 166.5,106.5C 175.792,98.9114 186.125,92.9114 197.5,88.5 Z"/></g>
<g><path style="opacity:1" fill="#b59a20" d="M 340.5,89.5 C 331.86,85.9478 322.86,83.4478 313.5,82C 308.167,81.3333 302.833,81.3333 297.5,82C 295.487,84.3792 293.654,86.8792 292,89.5C 290.633,96.4155 288.799,103.082 286.5,109.5C 286.5,106.833 286.5,104.167 286.5,101.5C 288.422,93.5169 291.089,85.8502 294.5,78.5C 298.795,77.3391 303.129,77.1725 307.5,78C 317.111,80.7904 326.777,83.457 336.5,86C 338.324,86.66 339.657,87.8267 340.5,89.5 Z"/></g>
<g><path style="opacity:1" fill="#e7d86a" d="M 357.5,95.5 C 359.685,95.7036 361.685,96.3702 363.5,97.5C 369.686,100.422 375.352,104.089 380.5,108.5C 372.476,104.722 364.809,100.388 357.5,95.5 Z"/></g>
<g><path style="opacity:1" fill="#c0b167" d="M 163.5,108.5 C 162.415,110.587 160.749,111.92 158.5,112.5C 159.585,110.413 161.251,109.08 163.5,108.5 Z"/></g>
<g><path style="opacity:1" fill="#e3e073" d="M 380.5,108.5 C 386.57,111.876 391.904,116.209 396.5,121.5C 395.078,121.291 393.745,120.791 392.5,120C 389.838,117.015 386.838,114.515 383.5,112.5C 382.211,111.363 381.211,110.03 380.5,108.5 Z"/></g>
<g><path style="opacity:1" fill="#958950" d="M 158.5,112.5 C 156.68,114.461 154.68,114.794 152.5,113.5C 154.5,113.167 156.5,112.833 158.5,112.5 Z"/></g>
<g><path style="opacity:1" fill="#a9a26f" d="M 55.5,115.5 C 52.5466,115.15 50.2133,116.15 48.5,118.5C 49.6886,114.67 52.022,113.67 55.5,115.5 Z"/></g>
<g><path style="opacity:1" fill="#ebe663" d="M 396.5,121.5 C 405.563,128.228 413.23,136.228 419.5,145.5C 417.787,144.695 416.121,143.695 414.5,142.5C 407.831,136.157 401.831,129.157 396.5,121.5 Z"/></g>
<g><path style="opacity:1" fill="#e0df6d" d="M 419.5,145.5 C 425.066,150.957 429.399,157.29 432.5,164.5C 430.621,163.103 428.954,161.437 427.5,159.5C 425.973,155.36 423.473,152.026 420,149.5C 419.51,148.207 419.343,146.873 419.5,145.5 Z"/></g>
<g><path style="opacity:1" fill="#aaab63" d="M 245.5,143.5 C 245.833,143.5 246.167,143.5 246.5,143.5C 245.942,150.647 245.275,157.647 244.5,164.5C 244.205,157.412 244.538,150.412 245.5,143.5 Z"/></g>
<g><path style="opacity:1" fill="#e5c330" d="M 286.5,101.5 C 286.5,104.167 286.5,106.833 286.5,109.5C 287.091,118.173 288.758,126.507 291.5,134.5C 293.994,145.818 296.161,157.152 298,168.5C 299.134,178.513 300.3,188.513 301.5,198.5C 301.158,199.338 300.492,199.672 299.5,199.5C 298.64,192.452 296.973,185.786 294.5,179.5C 294.5,179.167 294.5,178.833 294.5,178.5C 294.665,172.638 294.331,166.804 293.5,161C 293.392,159.319 292.725,158.152 291.5,157.5C 290.235,156.486 289.569,154.986 289.5,153C 288.771,145.65 287.771,138.483 286.5,131.5C 285.484,121.337 285.484,111.337 286.5,101.5 Z"/></g>
<g><path style="opacity:1" fill="#f0ed62" d="M 92.5,151.5 C 102.166,159.5 111.166,168.167 119.5,177.5C 113.706,190.495 111.373,204.162 112.5,218.5C 111.835,214.849 111.501,211.015 111.5,207C 111.488,199.42 112.155,191.92 113.5,184.5C 116.566,179.887 115.899,175.72 111.5,172C 110.552,171.517 109.552,171.351 108.5,171.5C 108.634,173.292 108.301,174.958 107.5,176.5C 106.794,177.557 106.461,177.224 106.5,175.5C 106.657,174.127 106.49,172.793 106,171.5C 99.9095,166.573 94.4095,161.24 89.5,155.5C 90.5,155.5 91.5,155.5 92.5,155.5C 92.5,154.167 92.5,152.833 92.5,151.5 Z"/></g>
<g><path style="opacity:1" fill="#e1d265" d="M 291.5,157.5 C 292.725,158.152 293.392,159.319 293.5,161C 294.331,166.804 294.665,172.638 294.5,178.5C 292.884,171.719 291.884,164.719 291.5,157.5 Z"/></g>
<g><path style="opacity:1" fill="#dad96e" d="M 434.5,168.5 C 435.885,169.574 437.051,170.907 438,172.5C 439.511,175.796 440.677,179.129 441.5,182.5C 440.833,182.167 440.167,181.833 439.5,181.5C 437.521,177.221 435.854,172.888 434.5,168.5 Z"/></g>
<g><path style="opacity:1" fill="#a89d5e" d="M 105.5,175.5 C 104.177,184.134 101.843,192.467 98.5,200.5C 96.437,202.449 95.1036,204.782 94.5,207.5C 96.6069,196.176 100.274,185.509 105.5,175.5 Z"/></g>
<g><path style="opacity:1" fill="#a88f1c" d="M 105.5,175.5 C 105.833,175.5 106.167,175.5 106.5,175.5C 106.461,177.224 106.794,177.557 107.5,176.5C 109.176,177.183 109.843,178.517 109.5,180.5C 105.389,187.732 102.056,195.399 99.5,203.5C 98.6365,204.463 97.9698,204.463 97.5,203.5C 98.1272,202.583 98.4606,201.583 98.5,200.5C 101.843,192.467 104.177,184.134 105.5,175.5 Z"/></g>
<g><path style="opacity:1" fill="#fed002" d="M 113.5,184.5 C 111.868,187.558 110.701,190.891 110,194.5C 108.292,209.554 109.959,224.221 115,238.5C 115.383,239.056 115.883,239.389 116.5,239.5C 119.687,245.212 122.853,250.878 126,256.5C 146.484,273.818 165.984,292.152 184.5,311.5C 186.528,312.549 188.528,313.549 190.5,314.5C 191.658,317.93 193.992,320.263 197.5,321.5C 198.5,321.833 199.167,322.5 199.5,323.5C 201.214,324.738 203.214,325.405 205.5,325.5C 204.89,326.391 204.557,327.391 204.5,328.5C 203.21,329.058 202.377,330.058 202,331.5C 199.946,340.89 196.946,349.89 193,358.5C 185.878,367.957 178.378,377.124 170.5,386C 166.218,386.965 162.218,386.298 158.5,384C 150.367,377.701 142.7,370.868 135.5,363.5C 130.483,356.986 124.983,350.986 119,345.5C 117.387,338.938 114.22,333.272 109.5,328.5C 105.186,318.326 101.186,307.993 97.5,297.5C 98.9663,298.347 99.7996,299.68 100,301.5C 100.167,300.667 100.333,299.833 100.5,299C 94.7803,275.144 93.1137,250.977 95.5,226.5C 97.2184,221.079 98.3851,215.412 99,209.5C 102.428,199.709 105.928,190.043 109.5,180.5C 109.843,178.517 109.176,177.183 107.5,176.5C 108.301,174.958 108.634,173.292 108.5,171.5C 109.552,171.351 110.552,171.517 111.5,172C 115.899,175.72 116.566,179.887 113.5,184.5 Z"/></g>
<g><path style="opacity:1" fill="#fefb49" d="M 439.5,181.5 C 440.167,181.833 440.833,182.167 441.5,182.5C 442.167,182.5 442.5,182.833 442.5,183.5C 444.915,188.83 446.248,194.496 446.5,200.5C 443.921,194.326 441.588,187.993 439.5,181.5 Z"/></g>
<g><path style="opacity:1" fill="#e1dd74" d="M 241.5,143.5 C 242.833,143.5 244.167,143.5 245.5,143.5C 244.538,150.412 244.205,157.412 244.5,164.5C 244.896,177.662 243.896,190.662 241.5,203.5C 239.55,198.265 238.883,192.598 239.5,186.5C 239.89,172.151 240.557,157.818 241.5,143.5 Z"/></g>
<g><path style="opacity:1" fill="#d1d064" d="M 442.5,183.5 C 446.198,189.923 448.532,196.923 449.5,204.5C 448.5,203.167 447.5,201.833 446.5,200.5C 446.248,194.496 444.915,188.83 442.5,183.5 Z"/></g>
<g><path style="opacity:1" fill="#faf441" d="M 113.5,184.5 C 112.155,191.92 111.488,199.42 111.5,207C 111.501,211.015 111.835,214.849 112.5,218.5C 113.117,218.611 113.617,218.944 114,219.5C 114.719,223.145 115.219,226.812 115.5,230.5C 115.963,233.482 116.296,236.482 116.5,239.5C 115.883,239.389 115.383,239.056 115,238.5C 109.959,224.221 108.292,209.554 110,194.5C 110.701,190.891 111.868,187.558 113.5,184.5 Z"/></g>
<g><path style="opacity:1" fill="#f7f34d" d="M 333.5,228.5 C 333.737,227.209 333.404,226.209 332.5,225.5C 328.209,222.877 324.543,219.544 321.5,215.5C 321.489,213.983 320.823,212.816 319.5,212C 316.603,209.59 313.603,207.423 310.5,205.5C 308.977,202.636 306.643,200.969 303.5,200.5C 301.261,205.968 299.927,205.635 299.5,199.5C 300.492,199.672 301.158,199.338 301.5,198.5C 304.423,196.899 307.09,197.232 309.5,199.5C 316.913,208.083 325.079,215.749 334,222.5C 334.789,224.712 334.622,226.712 333.5,228.5 Z"/></g>
<g><path style="opacity:1" fill="#100f0b" d="M 303.5,200.5 C 306.643,200.969 308.977,202.636 310.5,205.5C 313.589,209.594 317.255,212.928 321.5,215.5C 324.543,219.544 328.209,222.877 332.5,225.5C 332.762,226.978 332.429,228.311 331.5,229.5C 327.4,227.244 323.066,225.577 318.5,224.5C 315.805,221.474 313.138,218.474 310.5,215.5C 306.831,211.175 304.497,206.175 303.5,200.5 Z"/></g>
<g><path style="opacity:1" fill="#d0cc6c" d="M 294.5,179.5 C 296.973,185.786 298.64,192.452 299.5,199.5C 299.927,205.635 301.261,205.968 303.5,200.5C 304.497,206.175 306.831,211.175 310.5,215.5C 307.21,214.211 304.877,211.877 303.5,208.5C 302.566,210.095 302.566,211.761 303.5,213.5C 301.919,211.326 300.419,208.993 299,206.5C 297.05,197.464 295.55,188.464 294.5,179.5 Z"/></g>
<g><path style="opacity:1" fill="#baa84d" d="M 98.5,200.5 C 98.4606,201.583 98.1272,202.583 97.5,203.5C 97.9698,204.463 98.6365,204.463 99.5,203.5C 99.1176,206.65 97.7843,209.317 95.5,211.5C 93.9484,217.46 92.2817,223.127 90.5,228.5C 90.3618,221.093 91.6952,214.093 94.5,207.5C 95.1036,204.782 96.437,202.449 98.5,200.5 Z"/></g>
<g><path style="opacity:1" fill="#c7c56b" d="M 310.5,205.5 C 313.603,207.423 316.603,209.59 319.5,212C 320.823,212.816 321.489,213.983 321.5,215.5C 317.255,212.928 313.589,209.594 310.5,205.5 Z"/></g>
<g><path style="opacity:1" fill="#f3f26b" d="M 310.5,215.5 C 313.138,218.474 315.805,221.474 318.5,224.5C 320.44,227.098 323.107,228.765 326.5,229.5C 323.911,230.205 321.244,230.205 318.5,229.5C 312.14,225.472 307.14,220.139 303.5,213.5C 302.566,211.761 302.566,210.095 303.5,208.5C 304.877,211.877 307.21,214.211 310.5,215.5 Z"/></g>
<g><path style="opacity:1" fill="#c6a61f" d="M 109.5,180.5 C 105.928,190.043 102.428,199.709 99,209.5C 98.3851,215.412 97.2184,221.079 95.5,226.5C 93.9846,232.599 93.1512,238.932 93,245.5C 92.6582,247.619 91.8249,247.953 90.5,246.5C 90.5,240.5 90.5,234.5 90.5,228.5C 92.2817,223.127 93.9484,217.46 95.5,211.5C 97.7843,209.317 99.1176,206.65 99.5,203.5C 102.056,195.399 105.389,187.732 109.5,180.5 Z"/></g>
<g><path style="opacity:1" fill="#e1d673" d="M 239.5,186.5 C 238.883,192.598 239.55,198.265 241.5,203.5C 241.733,208.034 240.9,212.368 239,216.5C 234.053,223.726 230.22,231.393 227.5,239.5C 227.66,237.801 227.494,236.134 227,234.5C 226.023,236.706 224.857,238.706 223.5,240.5C 223.5,238.833 223.5,237.167 223.5,235.5C 224.931,235.119 225.764,234.119 226,232.5C 226.333,232.833 226.667,233.167 227,233.5C 228.502,227.702 230.835,223.035 234,219.5C 234.49,218.207 234.657,216.873 234.5,215.5C 234.146,212.579 235.146,210.246 237.5,208.5C 238.167,201.011 238.833,193.678 239.5,186.5 Z"/></g>
<g><path style="opacity:1" fill="#e9e868" d="M 449.5,204.5 C 451.265,208.187 452.432,212.187 453,216.5C 453.667,226.5 453.667,236.5 453,246.5C 451.196,250.142 448.363,252.475 444.5,253.5C 446.771,251.734 448.937,249.734 451,247.5C 451.667,236.167 451.667,224.833 451,213.5C 450.617,212.944 450.117,212.611 449.5,212.5C 449.5,209.833 449.5,207.167 449.5,204.5 Z"/></g>
<g><path style="opacity:1" fill="#c2b573" d="M 234.5,215.5 C 234.657,216.873 234.49,218.207 234,219.5C 230.835,223.035 228.502,227.702 227,233.5C 226.667,233.167 226.333,232.833 226,232.5C 225.764,234.119 224.931,235.119 223.5,235.5C 226.155,228.183 229.822,221.516 234.5,215.5 Z"/></g>
<g><path style="opacity:1" fill="#d7d16e" d="M 318.5,224.5 C 323.066,225.577 327.4,227.244 331.5,229.5C 332.429,228.311 332.762,226.978 332.5,225.5C 333.404,226.209 333.737,227.209 333.5,228.5C 333.461,229.583 333.127,230.583 332.5,231.5C 332.957,232.298 333.624,232.631 334.5,232.5C 334.5,233.167 334.5,233.833 334.5,234.5C 328.896,233.381 323.562,231.715 318.5,229.5C 321.244,230.205 323.911,230.205 326.5,229.5C 323.107,228.765 320.44,227.098 318.5,224.5 Z"/></g>
<g><path style="opacity:1" fill="#9b9c5d" d="M 335.5,235.5 C 340.607,235.044 345.274,236.044 349.5,238.5C 344.588,238.102 339.921,237.102 335.5,235.5 Z"/></g>
<g><path style="opacity:1" fill="#a2a25e" d="M 349.5,238.5 C 351.898,238.259 353.898,238.926 355.5,240.5C 353.102,240.741 351.102,240.074 349.5,238.5 Z"/></g>
<g><path style="opacity:1" fill="#cece6e" d="M 359.5,241.5 C 367.287,242.448 374.621,244.448 381.5,247.5C 375.729,246.779 370.062,245.613 364.5,244C 362.685,243.243 361.019,242.41 359.5,241.5 Z"/></g>
<g><path style="opacity:1" fill="#fdfb87" d="M 227.5,239.5 C 227.443,240.609 227.11,241.609 226.5,242.5C 225.834,247.017 225.167,251.683 224.5,256.5C 223.817,256.137 223.15,255.804 222.5,255.5C 222.221,250.405 222.555,245.405 223.5,240.5C 224.857,238.706 226.023,236.706 227,234.5C 227.494,236.134 227.66,237.801 227.5,239.5 Z"/></g>
<g><path style="opacity:1" fill="#f9f545" d="M 449.5,212.5 C 450.117,212.611 450.617,212.944 451,213.5C 451.667,224.833 451.667,236.167 451,247.5C 448.937,249.734 446.771,251.734 444.5,253.5C 440.674,255 436.674,255.666 432.5,255.5C 422.801,255.725 413.134,255.392 403.5,254.5C 403.167,254.5 402.833,254.5 402.5,254.5C 400.485,253.076 398.152,252.41 395.5,252.5C 393.5,251.833 391.5,251.167 389.5,250.5C 387.396,249.088 385.063,248.088 382.5,247.5C 382.167,247.5 381.833,247.5 381.5,247.5C 374.621,244.448 367.287,242.448 359.5,241.5C 357.901,241.768 356.568,241.434 355.5,240.5C 353.898,238.926 351.898,238.259 349.5,238.5C 345.274,236.044 340.607,235.044 335.5,235.5C 334.833,235.5 334.5,235.167 334.5,234.5C 334.5,233.833 334.5,233.167 334.5,232.5C 339.912,232.791 345.245,233.624 350.5,235C 369.524,240.676 388.524,246.342 407.5,252C 419.199,252.768 430.865,252.435 442.5,251C 445.684,250.175 448.184,248.342 450,245.5C 450.74,234.473 450.574,223.473 449.5,212.5 Z"/></g>
<g><path style="opacity:1" fill="#e3bc13" d="M 95.5,226.5 C 93.1137,250.977 94.7803,275.144 100.5,299C 100.333,299.833 100.167,300.667 100,301.5C 99.7996,299.68 98.9663,298.347 97.5,297.5C 97.7148,295.821 97.0481,294.821 95.5,294.5C 95.8866,289.92 95.0532,285.586 93,281.5C 91.8354,269.851 91.0021,258.184 90.5,246.5C 91.8249,247.953 92.6582,247.619 93,245.5C 93.1512,238.932 93.9846,232.599 95.5,226.5 Z"/></g>
<g><path style="opacity:1" fill="#c6c76f" d="M 382.5,247.5 C 385.063,248.088 387.396,249.088 389.5,250.5C 386.423,250.821 384.09,249.821 382.5,247.5 Z"/></g>
<g><path style="opacity:1" fill="#969658" d="M 395.5,252.5 C 398.152,252.41 400.485,253.076 402.5,254.5C 399.848,254.59 397.515,253.924 395.5,252.5 Z"/></g>
<g><path style="opacity:1" fill="#b5b56a" d="M 127.5,253.5 C 133.5,258.833 139.167,264.5 144.5,270.5C 137.833,265.833 132.167,260.167 127.5,253.5 Z"/></g>
<g><path style="opacity:1" fill="#666641" d="M 403.5,254.5 C 413.134,255.392 422.801,255.725 432.5,255.5C 423.676,256.657 414.676,256.824 405.5,256C 404.584,255.722 403.918,255.222 403.5,254.5 Z"/></g>
<g><path style="opacity:1" fill="#51503a" d="M 223.5,235.5 C 223.5,237.167 223.5,238.833 223.5,240.5C 222.555,245.405 222.221,250.405 222.5,255.5C 222.822,261.358 222.489,267.025 221.5,272.5C 221.333,261.828 221.5,251.161 222,240.5C 222.198,238.618 222.698,236.952 223.5,235.5 Z"/></g>
<g><path style="opacity:1" fill="#e9de43" d="M 353.5,261.5 C 347.797,261.625 342.13,261.292 336.5,260.5C 329.413,259.581 322.413,258.248 315.5,256.5C 314.357,254.899 315.024,254.233 317.5,254.5C 329.631,256.896 341.631,259.23 353.5,261.5 Z"/></g>
<g><path style="opacity:1" fill="#b8a95a" d="M 384.5,265.5 C 375.815,265.504 367.481,263.671 359.5,260C 344.723,256.846 329.889,254.346 315,252.5C 313.301,252.387 312.134,253.053 311.5,254.5C 310.445,252.888 310.945,251.555 313,250.5C 324.926,252.494 336.926,254.16 349,255.5C 355.205,257.208 361.372,259.041 367.5,261C 370.5,261.333 373.5,261.667 376.5,262C 379.122,263.475 381.788,264.641 384.5,265.5 Z"/></g>
<g><path style="opacity:1" fill="#c0a21c" d="M 384.5,265.5 C 388.75,265.639 392.916,266.305 397,267.5C 398.681,267.608 399.848,268.275 400.5,269.5C 397.183,268.779 393.849,268.612 390.5,269C 391.056,269.383 391.389,269.883 391.5,270.5C 381.928,269.477 372.595,267.81 363.5,265.5C 359.907,264.998 356.574,263.665 353.5,261.5C 341.631,259.23 329.631,256.896 317.5,254.5C 315.024,254.233 314.357,254.899 315.5,256.5C 313.938,256.267 312.605,255.6 311.5,254.5C 312.134,253.053 313.301,252.387 315,252.5C 329.889,254.346 344.723,256.846 359.5,260C 367.481,263.671 375.815,265.504 384.5,265.5 Z"/></g>
<g><path style="opacity:1" fill="#b8b54c" d="M 336.5,260.5 C 342.13,261.292 347.797,261.625 353.5,261.5C 356.574,263.665 359.907,264.998 363.5,265.5C 354.262,264.471 345.262,262.804 336.5,260.5 Z"/></g>
<g><path style="opacity:1" fill="#e8c81f" d="M 400.5,269.5 C 403.553,269.111 406.22,269.777 408.5,271.5C 409.609,272.29 410.942,272.79 412.5,273C 409.854,273.497 407.187,273.664 404.5,273.5C 400.259,272.095 395.926,271.095 391.5,270.5C 391.389,269.883 391.056,269.383 390.5,269C 393.849,268.612 397.183,268.779 400.5,269.5 Z"/></g>
<g><path style="opacity:1" fill="#b4b358" d="M 408.5,271.5 C 410.977,271.051 412.977,271.717 414.5,273.5C 411.02,274.806 407.687,274.806 404.5,273.5C 407.187,273.664 409.854,273.497 412.5,273C 410.942,272.79 409.609,272.29 408.5,271.5 Z"/></g>
<g><path style="opacity:1" fill="#dad87e" d="M 226.5,242.5 C 227.348,251.884 227.181,261.218 226,270.5C 223.52,275.487 222.187,280.82 222,286.5C 220.384,288.713 219.217,291.047 218.5,293.5C 218.719,292.325 218.386,291.325 217.5,290.5C 216.85,292.184 215.85,293.517 214.5,294.5C 217.197,287.21 219.53,279.877 221.5,272.5C 222.489,267.025 222.822,261.358 222.5,255.5C 223.15,255.804 223.817,256.137 224.5,256.5C 225.167,251.683 225.834,247.017 226.5,242.5 Z"/></g>
<g><path style="opacity:1" fill="#010101" d="M 342.5,289.5 C 354.014,290.607 365.681,291.607 377.5,292.5C 385.697,293.21 394.03,294.044 402.5,295C 405.309,296.323 407.975,297.823 410.5,299.5C 417.86,307.527 425.527,315.194 433.5,322.5C 433.634,324.292 433.301,325.958 432.5,327.5C 429.223,335.377 424.89,342.71 419.5,349.5C 415.197,354.809 410.863,360.142 406.5,365.5C 401.369,370.13 396.369,374.963 391.5,380C 382.434,386.189 373.434,392.356 364.5,398.5C 357.797,400.944 351.463,403.944 345.5,407.5C 343.938,407.733 342.605,408.4 341.5,409.5C 335.388,411.027 329.388,412.86 323.5,415C 315.746,416.512 308.08,418.012 300.5,419.5C 295.833,415.167 291.167,410.833 286.5,406.5C 283.833,403.167 280.833,400.167 277.5,397.5C 266.208,386.842 254.875,376.176 243.5,365.5C 242.463,363.262 242.297,360.929 243,358.5C 254.074,342.032 264.407,325.032 274,307.5C 279.429,299.565 286.929,294.731 296.5,293C 298.156,291.171 300.156,289.837 302.5,289C 315.845,288.389 329.178,288.556 342.5,289.5 Z"/></g>
<g><path style="opacity:1" fill="#d1c565" d="M 90.5,228.5 C 90.5,234.5 90.5,240.5 90.5,246.5C 91.0021,258.184 91.8354,269.851 93,281.5C 95.0532,285.586 95.8866,289.92 95.5,294.5C 95.5,295.5 95.5,296.5 95.5,297.5C 88.9103,274.858 87.2436,251.858 90.5,228.5 Z"/></g>
<g><path style="opacity:1" fill="#e7e283" d="M 355.5,287.5 C 366.664,288.521 377.997,289.354 389.5,290C 390.5,290.333 391.5,290.667 392.5,291C 392.167,291.333 391.833,291.667 391.5,292C 386.845,292.499 382.179,292.666 377.5,292.5C 365.681,291.607 354.014,290.607 342.5,289.5C 343.552,289.649 344.552,289.483 345.5,289C 345.167,288.667 344.833,288.333 344.5,288C 348.152,287.501 351.818,287.335 355.5,287.5 Z"/></g>
<g><path style="opacity:1" fill="#cbc677" d="M 355.5,287.5 C 371.841,286.648 387.841,287.981 403.5,291.5C 405.509,293.065 407.843,294.065 410.5,294.5C 416.117,296.472 421.45,298.806 426.5,301.5C 420.857,300.618 415.524,298.951 410.5,296.5C 409.577,295.697 408.577,295.53 407.5,296C 408.71,297.039 409.71,298.206 410.5,299.5C 407.975,297.823 405.309,296.323 402.5,295C 394.03,294.044 385.697,293.21 377.5,292.5C 382.179,292.666 386.845,292.499 391.5,292C 391.833,291.667 392.167,291.333 392.5,291C 391.5,290.667 390.5,290.333 389.5,290C 377.997,289.354 366.664,288.521 355.5,287.5 Z"/></g>
<g><path style="opacity:1" fill="#636340" d="M 403.5,291.5 C 406.491,291.166 408.824,292.166 410.5,294.5C 407.843,294.065 405.509,293.065 403.5,291.5 Z"/></g>
<g><path style="opacity:1" fill="#e4e36a" d="M 115.5,230.5 C 119.424,238.122 123.424,245.789 127.5,253.5C 132.167,260.167 137.833,265.833 144.5,270.5C 160.466,284.465 175.799,299.132 190.5,314.5C 188.528,313.549 186.528,312.549 184.5,311.5C 165.984,292.152 146.484,273.818 126,256.5C 122.853,250.878 119.687,245.212 116.5,239.5C 116.296,236.482 115.963,233.482 115.5,230.5 Z"/></g>
<g><path style="opacity:1" fill="#eee476" d="M 218.5,293.5 C 216.488,300.03 214.655,306.697 213,313.5C 209.247,321.662 206.08,329.995 203.5,338.5C 203.833,335.167 204.167,331.833 204.5,328.5C 204.557,327.391 204.89,326.391 205.5,325.5C 206.77,320.294 208.603,315.294 211,310.5C 211.946,305.837 212.779,301.17 213.5,296.5C 214.338,296.158 214.672,295.492 214.5,294.5C 215.85,293.517 216.85,292.184 217.5,290.5C 218.386,291.325 218.719,292.325 218.5,293.5 Z"/></g>
<g><path style="opacity:1" fill="#f0ec62" d="M 95.5,294.5 C 97.0481,294.821 97.7148,295.821 97.5,297.5C 101.186,307.993 105.186,318.326 109.5,328.5C 114.22,333.272 117.387,338.938 119,345.5C 124.983,350.986 130.483,356.986 135.5,363.5C 136.833,366.167 138.167,368.833 139.5,371.5C 118.654,350.469 103.987,325.802 95.5,297.5C 95.5,296.5 95.5,295.5 95.5,294.5 Z"/></g>
<g><path style="opacity:1" fill="#e8e162" d="M 243.5,291.5 C 244.404,292.209 244.737,293.209 244.5,294.5C 241.435,306.361 237.768,318.028 233.5,329.5C 226.503,342.497 219.837,355.497 213.5,368.5C 212.034,369.347 211.2,370.68 211,372.5C 210.506,370.866 210.34,369.199 210.5,367.5C 212.869,362.103 215.203,356.77 217.5,351.5C 217.393,353.379 217.893,353.712 219,352.5C 221.822,345.523 225.155,338.857 229,332.5C 233.378,318.643 238.212,304.976 243.5,291.5 Z"/></g>
<g><path style="opacity:1" fill="#dfba1b" d="M 410.5,296.5 C 415.524,298.951 420.857,300.618 426.5,301.5C 427.635,302.474 428.635,303.641 429.5,305C 431.491,305.374 433.158,306.207 434.5,307.5C 434.53,308.497 434.03,309.164 433,309.5C 431.189,308.922 429.355,308.422 427.5,308C 423.771,306.745 420.438,304.912 417.5,302.5C 414.94,300.727 412.607,298.727 410.5,296.5 Z"/></g>
<g><path style="opacity:1" fill="#fcd204" d="M 417.5,302.5 C 420.438,304.912 423.771,306.745 427.5,308C 429.355,308.422 431.189,308.922 433,309.5C 434.03,309.164 434.53,308.497 434.5,307.5C 435.338,307.842 435.672,308.508 435.5,309.5C 435.5,312.167 435.5,314.833 435.5,317.5C 434.448,317.649 433.448,317.483 432.5,317C 427.301,312.3 422.301,307.466 417.5,302.5 Z"/></g>
<g><path style="opacity:1" fill="#b3a761" d="M 213.5,296.5 C 212.779,301.17 211.946,305.837 211,310.5C 208.603,315.294 206.77,320.294 205.5,325.5C 203.214,325.405 201.214,324.738 199.5,323.5C 200.833,323.5 202.167,323.5 203.5,323.5C 207.58,314.74 210.913,305.74 213.5,296.5 Z"/></g>
<g><path style="opacity:1" fill="#ddd98d" d="M 355.5,287.5 C 351.818,287.335 348.152,287.501 344.5,288C 344.833,288.333 345.167,288.667 345.5,289C 344.552,289.483 343.552,289.649 342.5,289.5C 329.178,288.556 315.845,288.389 302.5,289C 300.156,289.837 298.156,291.171 296.5,293C 286.929,294.731 279.429,299.565 274,307.5C 264.407,325.032 254.074,342.032 243,358.5C 242.297,360.929 242.463,363.262 243.5,365.5C 242.833,365.5 242.167,365.5 241.5,365.5C 241.672,364.508 241.338,363.842 240.5,363.5C 239.798,362.884 238.798,362.884 237.5,363.5C 238.234,362.292 238.567,360.959 238.5,359.5C 242.43,355.979 245.097,351.645 246.5,346.5C 254.987,332.199 263.487,317.865 272,303.5C 274.54,301.295 276.707,298.795 278.5,296C 286.548,293.413 294.214,290.08 301.5,286C 319.692,285.172 337.692,285.672 355.5,287.5 Z"/></g>
<g><path style="opacity:1" fill="#f4f055" d="M 410.5,296.5 C 412.607,298.727 414.94,300.727 417.5,302.5C 422.301,307.466 427.301,312.3 432.5,317C 433.448,317.483 434.448,317.649 435.5,317.5C 435.5,314.833 435.5,312.167 435.5,309.5C 436.117,309.611 436.617,309.944 437,310.5C 437.903,316.281 437.57,321.947 436,327.5C 435.015,325.825 434.181,324.158 433.5,322.5C 425.527,315.194 417.86,307.527 410.5,299.5C 409.71,298.206 408.71,297.039 407.5,296C 408.577,295.53 409.577,295.697 410.5,296.5 Z"/></g>
<g><path style="opacity:1" fill="#d5d26b" d="M 190.5,314.5 C 192.546,316.279 194.713,317.946 197,319.5C 197.464,320.094 197.631,320.761 197.5,321.5C 193.992,320.263 191.658,317.93 190.5,314.5 Z"/></g>
<g><path style="opacity:1" fill="#f9f445" d="M 204.5,328.5 C 204.167,331.833 203.833,335.167 203.5,338.5C 202.626,341.535 201.626,344.535 200.5,347.5C 199.25,347.577 198.417,348.244 198,349.5C 197.195,354.441 195.695,359.108 193.5,363.5C 188.447,369.057 183.947,375.057 180,381.5C 177.131,384.704 173.965,387.537 170.5,390C 167.773,390.818 165.106,390.652 162.5,389.5C 159.133,388.823 156.466,387.157 154.5,384.5C 151.905,380.874 148.572,378.208 144.5,376.5C 144.167,373.5 142.5,371.833 139.5,371.5C 138.167,368.833 136.833,366.167 135.5,363.5C 142.7,370.868 150.367,377.701 158.5,384C 162.218,386.298 166.218,386.965 170.5,386C 178.378,377.124 185.878,367.957 193,358.5C 196.946,349.89 199.946,340.89 202,331.5C 202.377,330.058 203.21,329.058 204.5,328.5 Z"/></g>
<g><path style="opacity:1" fill="#b49a2a" d="M 243.5,291.5 C 238.212,304.976 233.378,318.643 229,332.5C 225.155,338.857 221.822,345.523 219,352.5C 217.893,353.712 217.393,353.379 217.5,351.5C 224.77,331.624 232.603,311.957 241,292.5C 241.838,291.001 242.671,290.668 243.5,291.5 Z"/></g>
<g><path style="opacity:1" fill="#bfb67e" d="M 244.5,294.5 C 244.737,293.209 244.404,292.209 243.5,291.5C 242.671,290.668 241.838,291.001 241,292.5C 232.603,311.957 224.77,331.624 217.5,351.5C 215.203,356.77 212.869,362.103 210.5,367.5C 209.833,368.5 209.167,369.5 208.5,370.5C 217.731,344.887 227.564,319.554 238,294.5C 239.106,291.274 240.939,288.607 243.5,286.5C 247.077,288.765 247.411,291.432 244.5,294.5 Z"/></g>
<g><path style="opacity:1" fill="#c4b876" d="M 432.5,327.5 C 431.83,333.671 429.33,339.005 425,343.5C 424.51,344.793 424.343,346.127 424.5,347.5C 422.486,347.392 420.82,348.058 419.5,349.5C 424.89,342.71 429.223,335.377 432.5,327.5 Z"/></g>
<g><path style="opacity:1" fill="#807c55" d="M 246.5,346.5 C 245.097,351.645 242.43,355.979 238.5,359.5C 240.932,354.959 243.599,350.625 246.5,346.5 Z"/></g>
<g><path style="opacity:1" fill="#d1d069" d="M 200.5,347.5 C 199.689,353.632 197.356,358.965 193.5,363.5C 195.695,359.108 197.195,354.441 198,349.5C 198.417,348.244 199.25,347.577 200.5,347.5 Z"/></g>
<g><path style="opacity:1" fill="#b7ad72" d="M 459.5,350.5 C 459.682,352.591 459.348,354.591 458.5,356.5C 456.909,358.774 455.409,361.108 454,363.5C 452.887,364.305 451.721,364.972 450.5,365.5C 453.252,360.326 456.252,355.326 459.5,350.5 Z"/></g>
<g><path style="opacity:1" fill="#040403" d="M 460.5,356.5 C 461.873,356.343 463.207,356.51 464.5,357C 472.023,363.93 474.523,372.43 472,382.5C 469.079,389.964 465.412,396.964 461,403.5C 451.37,415.63 441.204,427.297 430.5,438.5C 427.268,438.772 425.268,440.438 424.5,443.5C 420.122,446.359 416.122,449.692 412.5,453.5C 406.976,456.092 401.976,459.425 397.5,463.5C 396.508,463.328 395.842,463.662 395.5,464.5C 392.911,464.461 390.911,465.461 389.5,467.5C 387.656,468.16 385.99,469.16 384.5,470.5C 376.927,472.369 369.26,472.869 361.5,472C 358.113,468.947 354.447,466.28 350.5,464C 347.279,460.779 344.113,457.613 341,454.5C 340.506,452.866 340.34,451.199 340.5,449.5C 386.461,434.702 423.961,408.035 453,369.5C 456.031,365.434 458.531,361.1 460.5,356.5 Z"/></g>
<g><path style="opacity:1" fill="#edeb6c" d="M 241.5,365.5 C 242.167,365.5 242.833,365.5 243.5,365.5C 254.875,376.176 266.208,386.842 277.5,397.5C 275.688,397.229 274.022,396.562 272.5,395.5C 262.875,386.676 253.208,377.843 243.5,369C 242.177,368.184 241.511,367.017 241.5,365.5 Z"/></g>
<g><path style="opacity:1" fill="#fcd004" d="M 240.5,363.5 C 241.338,363.842 241.672,364.508 241.5,365.5C 241.511,367.017 242.177,368.184 243.5,369C 253.208,377.843 262.875,386.676 272.5,395.5C 274.022,396.562 275.688,397.229 277.5,397.5C 280.833,400.167 283.833,403.167 286.5,406.5C 286.351,407.552 286.517,408.552 287,409.5C 290.813,414.16 295.313,417.827 300.5,420.5C 300.804,421.15 301.137,421.817 301.5,422.5C 299.955,423.452 298.288,423.785 296.5,423.5C 276.781,425.724 257.448,424.224 238.5,419C 234.878,417.088 231.211,415.588 227.5,414.5C 226.89,413.609 226.557,412.609 226.5,411.5C 227.5,411.5 228.5,411.5 229.5,411.5C 228.825,395.721 232.325,381.054 240,367.5C 240.49,366.207 240.657,364.873 240.5,363.5 Z"/></g>
<g><path style="opacity:1" fill="#c5c46c" d="M 139.5,371.5 C 142.5,371.833 144.167,373.5 144.5,376.5C 142.5,375.167 140.833,373.5 139.5,371.5 Z"/></g>
<g><path style="opacity:1" fill="#dad482" d="M 210.5,367.5 C 210.34,369.199 210.506,370.866 211,372.5C 211.2,370.68 212.034,369.347 213.5,368.5C 212.243,372.59 210.743,376.59 209,380.5C 206.601,382.873 204.768,385.54 203.5,388.5C 203.003,386.784 202.669,385.117 202.5,383.5C 204.233,379.035 206.233,374.702 208.5,370.5C 209.167,369.5 209.833,368.5 210.5,367.5 Z"/></g>
<g><path style="opacity:1" fill="#dedd77" d="M 144.5,376.5 C 148.572,378.208 151.905,380.874 154.5,384.5C 150.793,382.312 147.46,379.645 144.5,376.5 Z"/></g>
<g><path style="opacity:1" fill="#cabd75" d="M 406.5,365.5 C 405.489,367.372 404.655,369.372 404,371.5C 402.933,372.191 401.766,372.691 400.5,373C 396.088,378.746 391.088,383.746 385.5,388C 379.287,393.106 372.287,396.606 364.5,398.5C 373.434,392.356 382.434,386.189 391.5,380C 396.369,374.963 401.369,370.13 406.5,365.5 Z"/></g>
<g><path style="opacity:1" fill="#c0b463" d="M 238.5,359.5 C 238.567,360.959 238.234,362.292 237.5,363.5C 234.889,367.609 232.722,371.942 231,376.5C 230.592,384.028 229.259,391.362 227,398.5C 226.501,402.821 226.334,407.154 226.5,411.5C 226.557,412.609 226.89,413.609 227.5,414.5C 228.551,415.222 229.218,416.222 229.5,417.5C 227.248,417.084 225.748,415.751 225,413.5C 224.118,398.679 226.118,384.346 231,370.5C 233.029,366.42 235.529,362.754 238.5,359.5 Z"/></g>
<g><path style="opacity:1" fill="#e0d776" d="M 426.5,301.5 C 430.115,302.789 433.615,304.456 437,306.5C 439.459,312.21 440.126,318.21 439,324.5C 422.385,359.781 396.885,386.615 362.5,405C 354.612,409.556 346.279,413.056 337.5,415.5C 336.448,415.649 335.448,415.483 334.5,415C 336.542,412.663 338.876,410.83 341.5,409.5C 342.605,408.4 343.938,407.733 345.5,407.5C 347.199,407.66 348.866,407.494 350.5,407C 353.758,404.539 357.425,402.873 361.5,402C 363.426,401.578 364.426,400.411 364.5,398.5C 372.287,396.606 379.287,393.106 385.5,388C 391.088,383.746 396.088,378.746 400.5,373C 401.766,372.691 402.933,372.191 404,371.5C 404.655,369.372 405.489,367.372 406.5,365.5C 410.863,360.142 415.197,354.809 419.5,349.5C 420.82,348.058 422.486,347.392 424.5,347.5C 424.343,346.127 424.51,344.793 425,343.5C 429.33,339.005 431.83,333.671 432.5,327.5C 433.301,325.958 433.634,324.292 433.5,322.5C 434.181,324.158 435.015,325.825 436,327.5C 437.57,321.947 437.903,316.281 437,310.5C 436.617,309.944 436.117,309.611 435.5,309.5C 435.672,308.508 435.338,307.842 434.5,307.5C 433.158,306.207 431.491,305.374 429.5,305C 428.635,303.641 427.635,302.474 426.5,301.5 Z"/></g>
<g><path style="opacity:1" fill="#bb9d16" d="M 240.5,363.5 C 240.657,364.873 240.49,366.207 240,367.5C 232.325,381.054 228.825,395.721 229.5,411.5C 228.5,411.5 227.5,411.5 226.5,411.5C 226.334,407.154 226.501,402.821 227,398.5C 229.259,391.362 230.592,384.028 231,376.5C 232.722,371.942 234.889,367.609 237.5,363.5C 238.798,362.884 239.798,362.884 240.5,363.5 Z"/></g>
<g><path style="opacity:1" fill="#a39b69" d="M 364.5,398.5 C 364.426,400.411 363.426,401.578 361.5,402C 357.425,402.873 353.758,404.539 350.5,407C 348.866,407.494 347.199,407.66 345.5,407.5C 351.463,403.944 357.797,400.944 364.5,398.5 Z"/></g>
<g><path style="opacity:1" fill="#f5f062" d="M 286.5,406.5 C 291.167,410.833 295.833,415.167 300.5,419.5C 300.5,419.833 300.5,420.167 300.5,420.5C 295.313,417.827 290.813,414.16 287,409.5C 286.517,408.552 286.351,407.552 286.5,406.5 Z"/></g>
<g><path style="opacity:1" fill="#b5a965" d="M 341.5,409.5 C 338.876,410.83 336.542,412.663 334.5,415C 335.448,415.483 336.448,415.649 337.5,415.5C 336.432,416.434 335.099,416.768 333.5,416.5C 333.265,415.903 332.765,415.57 332,415.5C 321.652,418.189 311.152,419.856 300.5,420.5C 300.5,420.167 300.5,419.833 300.5,419.5C 308.08,418.012 315.746,416.512 323.5,415C 329.388,412.86 335.388,411.027 341.5,409.5 Z"/></g>
<g><path style="opacity:1" fill="#f7f342" d="M 227.5,414.5 C 231.211,415.588 234.878,417.088 238.5,419C 257.448,424.224 276.781,425.724 296.5,423.5C 282.709,425.259 268.709,425.926 254.5,425.5C 250.821,425.94 247.488,425.273 244.5,423.5C 244.389,422.883 244.056,422.383 243.5,422C 238.745,420.557 234.078,419.057 229.5,417.5C 229.218,416.222 228.551,415.222 227.5,414.5 Z"/></g>
<g><path style="opacity:1" fill="#e1e171" d="M 229.5,417.5 C 234.078,419.057 238.745,420.557 243.5,422C 244.056,422.383 244.389,422.883 244.5,423.5C 240.737,423.143 237.07,422.31 233.5,421C 231.676,420.34 230.343,419.173 229.5,417.5 Z"/></g>
<g><path style="opacity:1" fill="#ddd582" d="M 460.5,349.5 C 460.5,351.833 460.5,354.167 460.5,356.5C 458.531,361.1 456.031,365.434 453,369.5C 423.961,408.035 386.461,434.702 340.5,449.5C 339.833,449.167 339.167,448.833 338.5,448.5C 339.827,446.818 341.494,445.485 343.5,444.5C 387.079,429.179 422.745,402.845 450.5,365.5C 451.721,364.972 452.887,364.305 454,363.5C 455.409,361.108 456.909,358.774 458.5,356.5C 459.348,354.591 459.682,352.591 459.5,350.5C 459.5,349.833 459.833,349.5 460.5,349.5 Z"/></g>
<g><path style="opacity:1" fill="#ddd967" d="M 333.5,416.5 C 315.266,424.182 296.1,427.848 276,427.5C 268.636,427.346 261.469,426.679 254.5,425.5C 268.709,425.926 282.709,425.259 296.5,423.5C 298.288,423.785 299.955,423.452 301.5,422.5C 301.137,421.817 300.804,421.15 300.5,420.5C 311.152,419.856 321.652,418.189 332,415.5C 332.765,415.57 333.265,415.903 333.5,416.5 Z"/></g>
<g><path style="opacity:1" fill="#a79e6e" d="M 430.5,438.5 C 428.909,440.633 426.909,442.299 424.5,443.5C 425.268,440.438 427.268,438.772 430.5,438.5 Z"/></g>
<g><path style="opacity:1" fill="#817b5b" d="M 343.5,444.5 C 341.494,445.485 339.827,446.818 338.5,448.5C 334.846,448.942 331.179,449.276 327.5,449.5C 332.762,447.859 338.095,446.192 343.5,444.5 Z"/></g>
<g><path style="opacity:1" fill="#8c865c" d="M 322.5,451.5 C 317.669,452.768 312.669,453.768 307.5,454.5C 307.611,453.883 307.944,453.383 308.5,453C 313.137,452.171 317.804,451.671 322.5,451.5 Z"/></g>
<g><path style="opacity:1" fill="#b3a667" d="M 424.5,443.5 C 421.248,447.784 417.248,451.118 412.5,453.5C 416.122,449.692 420.122,446.359 424.5,443.5 Z"/></g>
<g><path style="opacity:1" fill="#a89e63" d="M 306.5,454.5 C 300.762,456.228 294.762,456.895 288.5,456.5C 294.322,455.511 300.322,454.844 306.5,454.5 Z"/></g>
<g><path style="opacity:1" fill="#958f67" d="M 412.5,453.5 C 411.71,454.794 410.71,455.961 409.5,457C 405.34,459.023 401.34,461.189 397.5,463.5C 401.976,459.425 406.976,456.092 412.5,453.5 Z"/></g>
<g><path style="opacity:1" fill="#8e8a66" d="M 395.5,464.5 C 393.819,466.008 391.819,467.008 389.5,467.5C 390.911,465.461 392.911,464.461 395.5,464.5 Z"/></g>
<g><path style="opacity:0.514" fill="#2a2207" d="M -0.5,453.5 C 1.4776,460.055 3.4776,466.722 5.5,473.5C 2.58311,468.49 0.583109,463.157 -0.5,457.5C -0.5,456.167 -0.5,454.833 -0.5,453.5 Z"/></g>
<g><path style="opacity:0.51" fill="#57470a" d="M 510.5,53.5 C 510.833,53.5 511.167,53.5 511.5,53.5C 511.5,188.167 511.5,322.833 511.5,457.5C 510.417,463.157 508.417,468.49 505.5,473.5C 507.62,467.687 509.12,461.687 510,455.5C 510.5,321.5 510.667,187.5 510.5,53.5 Z"/></g>
<g><path style="opacity:0.161" fill="#1d1602" d="M 5.5,473.5 C 6.67373,474.514 7.3404,475.847 7.5,477.5C 5.89578,476.713 5.22911,475.38 5.5,473.5 Z"/></g>
<g><path style="opacity:0.163" fill="#1d1702" d="M 505.5,473.5 C 505.771,475.38 505.104,476.713 503.5,477.5C 503.66,475.847 504.326,474.514 505.5,473.5 Z"/></g>
<g><path style="opacity:0.059" fill="#1c1603" d="M 8.5,479.5 C 9.90632,479.973 10.573,480.973 10.5,482.5C 9.09368,482.027 8.42702,481.027 8.5,479.5 Z"/></g>
<g><path style="opacity:0.059" fill="#1c1703" d="M 502.5,479.5 C 502.573,481.027 501.906,482.027 500.5,482.5C 500.427,480.973 501.094,479.973 502.5,479.5 Z"/></g>
<g><path style="opacity:0.063" fill="#1d1702" d="M 10.5,482.5 C 11.9063,482.973 12.573,483.973 12.5,485.5C 11.0937,485.027 10.427,484.027 10.5,482.5 Z"/></g>
<g><path style="opacity:0.063" fill="#1d1703" d="M 500.5,482.5 C 500.573,484.027 499.906,485.027 498.5,485.5C 498.427,483.973 499.094,482.973 500.5,482.5 Z"/></g>
<g><path style="opacity:0.004" fill="#2a2207" d="M 12.5,485.5 C 17.1667,489.5 21.5,493.833 25.5,498.5C 20.1667,495.167 15.8333,490.833 12.5,485.5 Z"/></g>
<g><path style="opacity:0.051" fill="#191402" d="M 498.5,485.5 C 497.92,487.749 496.587,489.415 494.5,490.5C 495.08,488.251 496.413,486.585 498.5,485.5 Z"/></g>
<g><path style="opacity:0.004" fill="#120d01" d="M 490.5,494.5 C 489.415,496.587 487.749,497.92 485.5,498.5C 486.585,496.413 488.251,495.08 490.5,494.5 Z"/></g>
<g><path style="opacity:0.651" fill="#241d02" d="M 25.5,498.5 C 27.0269,498.427 28.0269,499.094 28.5,500.5C 26.9731,500.573 25.9731,499.906 25.5,498.5 Z"/></g>
<g><path style="opacity:0.063" fill="#171201" d="M 485.5,498.5 C 485.027,499.906 484.027,500.573 482.5,500.5C 482.973,499.094 483.973,498.427 485.5,498.5 Z"/></g>
<g><path style="opacity:0.58" fill="#221c03" d="M 28.5,500.5 C 30.0269,500.427 31.0269,501.094 31.5,502.5C 29.9731,502.573 28.9731,501.906 28.5,500.5 Z"/></g>
<g><path style="opacity:0.059" fill="#161102" d="M 482.5,500.5 C 482.027,501.906 481.027,502.573 479.5,502.5C 479.973,501.094 480.973,500.427 482.5,500.5 Z"/></g>
<g><path style="opacity:0.161" fill="#1e1802" d="M 33.5,503.5 C 35.153,503.66 36.4863,504.326 37.5,505.5C 35.6203,505.771 34.287,505.104 33.5,503.5 Z"/></g>
<g><path style="opacity:0.163" fill="#191301" d="M 477.5,503.5 C 476.713,505.104 475.38,505.771 473.5,505.5C 474.514,504.326 475.847,503.66 477.5,503.5 Z"/></g>
<g><path style="opacity:1" fill="#52430d" d="M 37.5,505.5 C 43.033,506.79 48.3664,508.457 53.5,510.5C 47.5907,510.361 42.2574,508.695 37.5,505.5 Z"/></g>
<g><path style="opacity:0.129" fill="#241d07" d="M 471.5,506.5 C 467.039,508.781 462.372,510.447 457.5,511.5C 456.167,511.5 454.833,511.5 453.5,511.5C 459.29,509.549 465.29,507.883 471.5,506.5 Z"/></g>
</svg>
