<?xml version="1.0" standalone="no"?>
<!DOCTYPE svg PUBLIC "-//W3C//DTD SVG 20010904//EN"
 "http://www.w3.org/TR/2001/REC-SVG-20010904/DTD/svg10.dtd">
<svg version="1.0" xmlns="http://www.w3.org/2000/svg"
 width="700.000000pt" height="700.000000pt" viewBox="0 0 700.000000 700.000000"
 preserveAspectRatio="xMidYMid meet">
<metadata>
Created by potrace 1.14, written by Peter Selinger 2001-2017
</metadata>
<g transform="translate(0.000000,700.000000) scale(0.100000,-0.100000)"
fill="#000000" stroke="none">
<path d="M681 6989 c-29 -5 -81 -22 -115 -38 -33 -15 -75 -34 -93 -40 -17 -7
-34 -19 -37 -27 -3 -7 -12 -11 -21 -8 -8 3 -15 2 -15 -4 0 -6 -16 -20 -35 -32
-19 -12 -33 -26 -30 -31 4 -5 0 -6 -8 -3 -17 6 -117 -93 -157 -156 -16 -25
-34 -51 -40 -57 -6 -7 -7 -13 -3 -13 4 0 0 -5 -10 -11 -9 -5 -17 -17 -17 -24
0 -8 -5 -15 -12 -15 -6 0 -8 -3 -5 -7 4 -3 2 -12 -4 -20 -6 -7 -8 -13 -4 -13
4 0 2 -7 -5 -15 -6 -8 -8 -20 -4 -26 4 -7 3 -9 -3 -6 -15 9 -45 -67 -48 -121
-2 -24 -6 -46 -9 -49 -10 -10 -7 -5575 3 -5568 5 3 14 -9 20 -25 6 -18 6 -28
1 -25 -12 7 -2 -22 18 -53 8 -12 12 -22 8 -22 -3 0 6 -21 19 -46 14 -26 25
-52 25 -59 0 -7 16 -30 35 -51 19 -21 35 -42 35 -48 0 -5 45 -53 99 -107 55
-54 96 -101 93 -104 -4 -4 -2 -6 3 -4 13 3 65 -22 65 -32 0 -4 13 -10 30 -14
16 -4 44 -16 62 -29 42 -28 113 -54 159 -59 20 -2 42 -8 49 -12 8 -5 1245 -8
2749 -8 2729 1 2736 1 2793 21 32 12 58 18 58 15 0 -3 7 0 15 7 8 7 15 10 15
7 0 -3 20 0 45 7 25 8 45 12 45 10 0 -2 16 8 36 21 20 14 41 25 47 25 6 0 17
7 26 15 22 21 102 79 150 110 23 14 48 40 56 58 14 31 67 103 102 140 9 9 18
24 19 33 1 8 16 41 32 72 16 32 28 65 26 75 -1 9 1 15 6 12 12 -8 20 21 8 33
-6 6 -6 12 3 17 8 6 10 4 4 -6 -5 -8 -4 -10 0 -6 12 10 16 39 5 32 -4 -3 -6 4
-3 15 3 11 9 18 13 15 9 -6 6 42 -4 52 -3 3 0 13 7 21 10 12 9 16 -1 20 -9 3
-10 7 -2 17 8 9 8 15 0 20 -5 3 -10 12 -10 18 0 7 4 6 10 -3 8 -12 10 -10 10
8 0 13 -4 21 -8 18 -5 -3 -9 1 -9 9 0 8 4 12 9 9 13 -8 10 10 -4 25 -11 11
-10 14 0 18 6 3 9 10 5 16 -4 7 -9 21 -10 32 -2 14 0 16 5 7 6 -8 9 -2 9 18 0
19 -3 26 -8 18 -5 -8 -8 -5 -6 9 0 12 5 19 9 17 4 -3 8 2 8 11 0 9 -3 14 -7
12 -5 -3 -9 11 -9 30 -1 23 1 30 7 22 7 -11 9 -10 9 3 0 9 -4 20 -10 23 -6 3
-10 12 -10 18 0 7 4 6 10 -3 8 -12 10 -11 10 8 0 12 -4 22 -8 22 -5 0 -9 7 -9
15 0 8 4 12 9 9 4 -3 8 0 8 5 0 6 -4 11 -10 11 -5 0 -10 5 -10 11 0 5 5 7 10
4 6 -3 10 -2 10 4 0 5 -4 13 -10 16 -5 3 -10 12 -10 18 0 7 4 6 10 -3 8 -12
10 -10 10 8 0 13 -3 21 -8 19 -4 -3 -7 10 -7 28 0 18 3 31 8 28 4 -2 7 0 7 6
0 5 -4 13 -10 16 -5 3 -10 12 -10 18 0 7 4 6 10 -3 8 -13 10 -13 10 1 0 9 -3
19 -7 23 -11 11 -12 67 -2 60 13 -8 11 10 -3 25 -8 9 -8 11 -2 8 7 -4 14 0 17
8 4 8 1 12 -6 9 -8 -3 -13 5 -14 18 -2 18 0 20 7 8 8 -12 10 -10 10 8 0 13 -4
21 -8 18 -5 -3 -9 1 -9 9 0 8 4 12 9 9 13 -8 10 10 -4 25 -10 11 -10 13 0 7 6
-4 12 -2 12 3 0 6 -5 11 -11 11 -8 0 -8 4 0 14 8 10 9 16 1 21 -5 3 -10 12
-10 18 0 7 4 6 10 -3 8 -12 10 -9 10 13 0 16 -4 26 -8 23 -5 -3 -9 1 -9 9 0 8
4 12 9 9 4 -3 8 0 8 5 0 6 -6 11 -12 11 -8 0 -9 3 -3 8 14 10 18 55 4 47 -6
-4 -5 3 3 14 8 14 9 24 3 29 -13 9 -18 35 -5 27 5 -3 10 -1 10 4 0 6 -6 11
-12 11 -8 0 -9 3 -3 8 6 4 11 18 13 32 2 20 1 22 -7 10 -7 -9 -11 -10 -11 -3
0 6 5 15 10 18 8 5 7 11 -1 21 -6 8 -8 14 -3 14 5 0 10 28 11 62 1 40 -2 56
-8 47 -5 -8 -9 -9 -9 -3 0 6 3 14 7 18 4 3 8 23 10 44 2 27 0 33 -7 22 -5 -8
-10 -10 -10 -4 0 6 3 14 7 18 12 11 14 48 3 61 -5 6 -7 15 -3 19 12 12 13 47
2 68 -8 15 -8 19 0 14 15 -10 14 7 -1 23 -10 11 -10 13 0 7 15 -9 16 8 1 36
-6 11 -7 18 -1 14 12 -7 10 124 -3 143 -5 10 -4 12 3 7 7 -4 12 -1 12 8 0 8
-5 18 -10 21 -7 4 -7 12 -2 18 11 15 9 158 -2 176 -6 10 -6 12 3 7 13 -9 10
51 -4 74 -5 9 -4 11 3 6 7 -4 12 -1 12 8 0 8 -5 18 -10 21 -7 4 -7 11 -2 18 5
7 8 38 7 69 -2 38 1 55 8 51 6 -4 7 -1 1 8 -14 23 -17 62 -3 54 8 -5 8 -2 2
11 -11 22 -11 1653 0 1670 3 6 3 14 -1 18 -10 10 -10 949 0 963 5 6 5 14 1 16
-5 3 -8 93 -7 199 0 106 -1 197 -5 203 -3 5 -6 28 -8 50 -3 43 -43 155 -55
155 -5 0 -8 7 -8 15 0 8 -4 15 -8 15 -4 0 -14 20 -21 45 -7 25 -17 42 -22 39
-5 -3 -9 0 -9 7 0 6 -8 18 -17 26 -12 9 -12 12 -3 8 8 -4 -16 25 -55 63 -38
39 -69 76 -67 82 1 6 -2 9 -7 5 -6 -3 -22 8 -37 25 -15 16 -33 30 -41 30 -7 0
-16 7 -19 15 -4 8 -12 15 -20 15 -8 0 -19 9 -26 20 -7 11 -22 20 -34 20 -12 0
-33 9 -47 20 -14 11 -32 20 -40 20 -9 0 -19 5 -23 11 -3 6 -15 9 -25 6 -11 -3
-17 -2 -14 3 2 4 -18 14 -46 23 -46 15 -287 17 -2822 16 -1584 -1 -2795 -5
-2826 -10z"/>
</g>
</svg>
